# xmcd
#
# Track frame offsets:
#	150
#	13287
#	25992
#	39930
#	51930
#	63265
#	72762
#	83070
#	92785
#	104242
#	117880
#	130030
#	143000
#	150597
#	160722
#	171597
#	181355
#	199295
#
# Disc length: 2844 seconds
#
# Revision: 0
# Processed by: cddbd v1.5.2PL0 Copyright (c) Steve Scherf et al.
# Submitted via: EasyCDDAExtractor 16.0.1.1
#
DISCID=f70b1a12
DTITLE=Slim Harpo - The Best of Slim Harpo
DYEAR=1991
DGENRE=Blues
TTITLE0=Baby Scratch My Back
TTITLE1=I Got Love If You Want It
TTITLE2=I'm A King Bee
TTITLE3=Little Queen Bee
TTITLE4=Shake Your Hips
TTITLE5=Te-Ni-Nee-Ni-Nu
TTITLE6=Buzz Me Babe
TTITLE7=Buzzin'
TTITLE8=Rainin' In My Heart
TTITLE9=Still Rainin' In My Heart
TTITLE10=Late Last Night
TTITLE11=Tip On In, Part 1
TTITLE12=Bobby Sox Baby
TTITLE13=Don't Start Cryin' Now
TTITLE14=I Need Money
TTITLE15=Strange Love
TTITLE16=Rock Me Baby
TTITLE17=Blues Hang-over
EXTD=
EXTT0=
EXTT1=
EXTT2=
EXTT3=
EXTT4=
EXTT5=
EXTT6=
EXTT7=
EXTT8=
EXTT9=
EXTT10=
EXTT11=
EXTT12=
EXTT13=
EXTT14=
EXTT15=
EXTT16=
EXTT17=
PLAYORDER=
